# xmcd
#
# Track frame offsets: 
#        150
#        21325
#        39540
#        60152
#        74567
#        93614
#        110074
#        123849
#        152282
#        166562
#        184707
#        202259
#        220854
#        241710
#        254978
#        263380
#
# Disc length: 3771 seconds
#
# Revision: 0
# Processed by: cddbd v1.5.2PL0 Copyright (c) Steve Scherf et al.
# Submitted via: ExactAudioCopy v1.0b2
#
DISCID=da0eb910
DTITLE=China - 奥斯卡电影英文金曲精选
DYEAR=2013
DGENRE=Funk
TTITLE0=爱无止境
TTITLE1=说你说我
TTITLE2=爱你到永远
TTITLE3=爱情故事
TTITLE4=带走我的呼吸
TTITLE5=人鬼情未了
TTITLE6=教父
TTITLE7=电话诉衷肠
TTITLE8=毕业生
TTITLE9=今夜你能感觉到爱吗
TTITLE10=漂亮女人
TTITLE11=美女与野兽
TTITLE12=卡萨布兰卡
TTITLE13=罗马假日
TTITLE14=雪绒花
TTITLE15=当我爱上你
EXTD=
EXTT0=
EXTT1=
EXTT2=
EXTT3=
EXTT4=
EXTT5=
EXTT6=
EXTT7=
EXTT8=
EXTT9=
EXTT10=
EXTT11=
EXTT12=
EXTT13=
EXTT14=
EXTT15=
PLAYORDER=
